<mxfile host="app.diagrams.net" agent="Mozilla/5.0 (Windows NT 10.0; Win64; x64) AppleWebKit/537.36 (KHTML, like Gecko) Chrome/137.0.0.0 Safari/537.36" version="27.1.4" pages="2">
  <diagram name="Page-1" id="E9vA-dVRGLDhg2ZoYVhs">
    <mxGraphModel dx="1663" dy="681" grid="1" gridSize="10" guides="1" tooltips="1" connect="1" arrows="1" fold="1" page="1" pageScale="1" pageWidth="850" pageHeight="1100" math="0" shadow="0">
      <root>
        <mxCell id="0" />
        <mxCell id="1" parent="0" />
        <mxCell id="Pl_Ps-6tGvWlQjtr-01S-1" value="&lt;i style=&quot;background-color: light-dark(#ffffff, var(--ge-dark-color, #121212));&quot;&gt;Alerta Leitos - Camadas&lt;/i&gt;" style="swimlane;html=1;childLayout=stackLayout;horizontal=1;startSize=20;horizontalStack=0;rounded=0;shadow=0;labelBackgroundColor=none;strokeWidth=1;fontFamily=Verdana;fontSize=8;align=center;" vertex="1" parent="1">
          <mxGeometry x="70" y="10" width="700" height="650" as="geometry" />
        </mxCell>
        <mxCell id="Pl_Ps-6tGvWlQjtr-01S-2" value="1 - Hardware" style="swimlane;html=1;startSize=20;horizontal=0;" vertex="1" parent="Pl_Ps-6tGvWlQjtr-01S-1">
          <mxGeometry y="20" width="700" height="140" as="geometry" />
        </mxCell>
        <mxCell id="Pl_Ps-6tGvWlQjtr-01S-3" style="edgeStyle=orthogonalEdgeStyle;rounded=0;orthogonalLoop=1;jettySize=auto;html=1;exitX=1;exitY=0.5;exitDx=0;exitDy=0;entryX=0;entryY=0.5;entryDx=0;entryDy=0;" edge="1" parent="Pl_Ps-6tGvWlQjtr-01S-2" source="Pl_Ps-6tGvWlQjtr-01S-4" target="Pl_Ps-6tGvWlQjtr-01S-5">
          <mxGeometry relative="1" as="geometry">
            <mxPoint x="310.0000000000002" y="81.77777777777771" as="targetPoint" />
          </mxGeometry>
        </mxCell>
        <mxCell id="Pl_Ps-6tGvWlQjtr-01S-4" value="Servo Motor" style="rounded=1;whiteSpace=wrap;html=1;shadow=0;labelBackgroundColor=none;strokeWidth=1;fontFamily=Verdana;fontSize=8;align=center;" vertex="1" parent="Pl_Ps-6tGvWlQjtr-01S-2">
          <mxGeometry x="120" y="56.49999999999997" width="75" height="50" as="geometry" />
        </mxCell>
        <mxCell id="Pl_Ps-6tGvWlQjtr-01S-5" value="Arduino Uno" style="rounded=1;whiteSpace=wrap;html=1;shadow=0;labelBackgroundColor=none;strokeWidth=1;fontFamily=Verdana;fontSize=8;align=center;" vertex="1" parent="Pl_Ps-6tGvWlQjtr-01S-2">
          <mxGeometry x="315" y="56.49999999999997" width="75" height="50" as="geometry" />
        </mxCell>
        <mxCell id="Pl_Ps-6tGvWlQjtr-01S-6" style="edgeStyle=orthogonalEdgeStyle;rounded=0;orthogonalLoop=1;jettySize=auto;html=1;exitX=0;exitY=0.5;exitDx=0;exitDy=0;entryX=1;entryY=0.5;entryDx=0;entryDy=0;" edge="1" parent="Pl_Ps-6tGvWlQjtr-01S-2" source="Pl_Ps-6tGvWlQjtr-01S-7" target="Pl_Ps-6tGvWlQjtr-01S-5">
          <mxGeometry relative="1" as="geometry" />
        </mxCell>
        <mxCell id="Pl_Ps-6tGvWlQjtr-01S-7" value="6 LED&#39;s&lt;div&gt;(vermelho, amarelo, verde, ciano, laranja, roxo)&lt;/div&gt;" style="rounded=1;whiteSpace=wrap;html=1;shadow=0;labelBackgroundColor=none;strokeWidth=1;fontFamily=Verdana;fontSize=8;align=center;" vertex="1" parent="Pl_Ps-6tGvWlQjtr-01S-2">
          <mxGeometry x="575" y="56.5" width="105" height="50" as="geometry" />
        </mxCell>
        <mxCell id="Pl_Ps-6tGvWlQjtr-01S-8" style="edgeStyle=orthogonalEdgeStyle;rounded=0;orthogonalLoop=1;jettySize=auto;html=1;exitX=0;exitY=0.5;exitDx=0;exitDy=0;entryX=1;entryY=0.5;entryDx=0;entryDy=0;" edge="1" parent="Pl_Ps-6tGvWlQjtr-01S-2" source="Pl_Ps-6tGvWlQjtr-01S-9" target="Pl_Ps-6tGvWlQjtr-01S-5">
          <mxGeometry relative="1" as="geometry" />
        </mxCell>
        <mxCell id="Pl_Ps-6tGvWlQjtr-01S-9" value="LCD I2C" style="rounded=1;whiteSpace=wrap;html=1;shadow=0;labelBackgroundColor=none;strokeWidth=1;fontFamily=Verdana;fontSize=8;align=center;" vertex="1" parent="Pl_Ps-6tGvWlQjtr-01S-2">
          <mxGeometry x="480" y="16.5" width="85" height="40" as="geometry" />
        </mxCell>
        <mxCell id="Pl_Ps-6tGvWlQjtr-01S-10" style="edgeStyle=orthogonalEdgeStyle;rounded=0;orthogonalLoop=1;jettySize=auto;html=1;exitX=0;exitY=0.5;exitDx=0;exitDy=0;entryX=1;entryY=0.5;entryDx=0;entryDy=0;" edge="1" parent="Pl_Ps-6tGvWlQjtr-01S-2" source="Pl_Ps-6tGvWlQjtr-01S-11" target="Pl_Ps-6tGvWlQjtr-01S-5">
          <mxGeometry relative="1" as="geometry" />
        </mxCell>
        <mxCell id="Pl_Ps-6tGvWlQjtr-01S-11" value="RTC DS1307" style="rounded=1;whiteSpace=wrap;html=1;shadow=0;labelBackgroundColor=none;strokeWidth=1;fontFamily=Verdana;fontSize=8;align=center;" vertex="1" parent="Pl_Ps-6tGvWlQjtr-01S-2">
          <mxGeometry x="480" y="90" width="85" height="40" as="geometry" />
        </mxCell>
        <mxCell id="Pl_Ps-6tGvWlQjtr-01S-12" value="2 -&amp;nbsp;Automação e Comunicação" style="swimlane;html=1;startSize=20;horizontal=0;" vertex="1" parent="Pl_Ps-6tGvWlQjtr-01S-1">
          <mxGeometry y="160" width="700" height="220" as="geometry" />
        </mxCell>
        <mxCell id="Pl_Ps-6tGvWlQjtr-01S-13" value="" style="edgeStyle=orthogonalEdgeStyle;rounded=0;orthogonalLoop=1;jettySize=auto;html=1;" edge="1" parent="Pl_Ps-6tGvWlQjtr-01S-12" source="Pl_Ps-6tGvWlQjtr-01S-14" target="Pl_Ps-6tGvWlQjtr-01S-16">
          <mxGeometry relative="1" as="geometry" />
        </mxCell>
        <mxCell id="Pl_Ps-6tGvWlQjtr-01S-14" value="Node-RED" style="rounded=1;whiteSpace=wrap;html=1;shadow=0;labelBackgroundColor=none;strokeWidth=1;fontFamily=Verdana;fontSize=8;align=center;" vertex="1" parent="Pl_Ps-6tGvWlQjtr-01S-12">
          <mxGeometry x="117.5" y="91.49999999999996" width="80" height="55" as="geometry" />
        </mxCell>
        <mxCell id="Pl_Ps-6tGvWlQjtr-01S-15" value="" style="edgeStyle=orthogonalEdgeStyle;rounded=0;orthogonalLoop=1;jettySize=auto;html=1;" edge="1" parent="Pl_Ps-6tGvWlQjtr-01S-12" source="Pl_Ps-6tGvWlQjtr-01S-16" target="Pl_Ps-6tGvWlQjtr-01S-18">
          <mxGeometry relative="1" as="geometry" />
        </mxCell>
        <mxCell id="Pl_Ps-6tGvWlQjtr-01S-16" value="Recebimento&amp;nbsp;&lt;div&gt;dos dados&lt;/div&gt;" style="ellipse;whiteSpace=wrap;html=1;fontSize=8;fontFamily=Verdana;rounded=1;shadow=0;labelBackgroundColor=none;strokeWidth=1;" vertex="1" parent="Pl_Ps-6tGvWlQjtr-01S-12">
          <mxGeometry x="230" y="87" width="80" height="64" as="geometry" />
        </mxCell>
        <mxCell id="Pl_Ps-6tGvWlQjtr-01S-17" value="" style="edgeStyle=orthogonalEdgeStyle;rounded=0;orthogonalLoop=1;jettySize=auto;html=1;" edge="1" parent="Pl_Ps-6tGvWlQjtr-01S-12" source="Pl_Ps-6tGvWlQjtr-01S-18" target="Pl_Ps-6tGvWlQjtr-01S-19">
          <mxGeometry relative="1" as="geometry" />
        </mxCell>
        <mxCell id="Pl_Ps-6tGvWlQjtr-01S-18" value="Processamento da lógica dos status" style="ellipse;whiteSpace=wrap;html=1;fontSize=8;fontFamily=Verdana;rounded=1;shadow=0;labelBackgroundColor=none;strokeWidth=1;" vertex="1" parent="Pl_Ps-6tGvWlQjtr-01S-12">
          <mxGeometry x="340" y="87" width="80" height="64" as="geometry" />
        </mxCell>
        <mxCell id="Pl_Ps-6tGvWlQjtr-01S-19" value="Encaminhamento&lt;div&gt;pra nuvem&lt;/div&gt;" style="ellipse;whiteSpace=wrap;html=1;fontSize=8;fontFamily=Verdana;rounded=1;shadow=0;labelBackgroundColor=none;strokeWidth=1;" vertex="1" parent="Pl_Ps-6tGvWlQjtr-01S-12">
          <mxGeometry x="460" y="87" width="80" height="64" as="geometry" />
        </mxCell>
        <mxCell id="Pl_Ps-6tGvWlQjtr-01S-20" value="3 -&amp;nbsp;Back-End e Visualização (Nuvem)" style="swimlane;html=1;startSize=20;horizontal=0;" vertex="1" parent="Pl_Ps-6tGvWlQjtr-01S-1">
          <mxGeometry y="380" width="700" height="265" as="geometry" />
        </mxCell>
        <mxCell id="Pl_Ps-6tGvWlQjtr-01S-21" style="edgeStyle=orthogonalEdgeStyle;rounded=0;orthogonalLoop=1;jettySize=auto;html=1;exitX=0.5;exitY=1;exitDx=0;exitDy=0;entryX=0.5;entryY=0;entryDx=0;entryDy=0;" edge="1" parent="Pl_Ps-6tGvWlQjtr-01S-20" source="Pl_Ps-6tGvWlQjtr-01S-22" target="Pl_Ps-6tGvWlQjtr-01S-27">
          <mxGeometry relative="1" as="geometry" />
        </mxCell>
        <mxCell id="Pl_Ps-6tGvWlQjtr-01S-22" value="Dashboard&lt;div&gt;via Tago.io&lt;/div&gt;" style="rounded=1;whiteSpace=wrap;html=1;shadow=0;labelBackgroundColor=none;strokeWidth=1;fontFamily=Verdana;fontSize=8;align=center;" vertex="1" parent="Pl_Ps-6tGvWlQjtr-01S-20">
          <mxGeometry x="170" y="60.00000000000003" width="80" height="50" as="geometry" />
        </mxCell>
        <mxCell id="Pl_Ps-6tGvWlQjtr-01S-23" value="" style="edgeStyle=orthogonalEdgeStyle;rounded=0;orthogonalLoop=1;jettySize=auto;html=1;" edge="1" parent="Pl_Ps-6tGvWlQjtr-01S-20" source="Pl_Ps-6tGvWlQjtr-01S-25" target="Pl_Ps-6tGvWlQjtr-01S-26">
          <mxGeometry relative="1" as="geometry" />
        </mxCell>
        <mxCell id="Pl_Ps-6tGvWlQjtr-01S-24" style="edgeStyle=orthogonalEdgeStyle;rounded=0;orthogonalLoop=1;jettySize=auto;html=1;exitX=0;exitY=0.5;exitDx=0;exitDy=0;entryX=1;entryY=0.5;entryDx=0;entryDy=0;" edge="1" parent="Pl_Ps-6tGvWlQjtr-01S-20" source="Pl_Ps-6tGvWlQjtr-01S-25" target="Pl_Ps-6tGvWlQjtr-01S-22">
          <mxGeometry relative="1" as="geometry" />
        </mxCell>
        <mxCell id="Pl_Ps-6tGvWlQjtr-01S-25" value="Tago.io" style="rounded=1;whiteSpace=wrap;html=1;shadow=0;labelBackgroundColor=none;strokeWidth=1;fontFamily=Verdana;fontSize=8;align=center;" vertex="1" parent="Pl_Ps-6tGvWlQjtr-01S-20">
          <mxGeometry x="460" y="60" width="80" height="50" as="geometry" />
        </mxCell>
        <mxCell id="Pl_Ps-6tGvWlQjtr-01S-26" value="Plataforma em nuvem que armazena os dados enviados via Node-RED" style="ellipse;whiteSpace=wrap;html=1;fontSize=8;fontFamily=Verdana;rounded=1;shadow=0;labelBackgroundColor=none;strokeWidth=1;" vertex="1" parent="Pl_Ps-6tGvWlQjtr-01S-20">
          <mxGeometry x="435" y="140" width="130" height="100" as="geometry" />
        </mxCell>
        <mxCell id="Pl_Ps-6tGvWlQjtr-01S-27" value="Exibe o status de cada leito&lt;div&gt;em tempo real&lt;/div&gt;" style="ellipse;whiteSpace=wrap;html=1;fontSize=8;fontFamily=Verdana;rounded=1;shadow=0;labelBackgroundColor=none;strokeWidth=1;" vertex="1" parent="Pl_Ps-6tGvWlQjtr-01S-20">
          <mxGeometry x="145" y="140" width="130" height="100" as="geometry" />
        </mxCell>
        <mxCell id="Pl_Ps-6tGvWlQjtr-01S-28" style="edgeStyle=orthogonalEdgeStyle;rounded=0;orthogonalLoop=1;jettySize=auto;html=1;exitX=0.5;exitY=1;exitDx=0;exitDy=0;entryX=0.5;entryY=0;entryDx=0;entryDy=0;" edge="1" parent="Pl_Ps-6tGvWlQjtr-01S-1" source="Pl_Ps-6tGvWlQjtr-01S-5" target="Pl_Ps-6tGvWlQjtr-01S-14">
          <mxGeometry relative="1" as="geometry" />
        </mxCell>
        <mxCell id="Pl_Ps-6tGvWlQjtr-01S-29" style="edgeStyle=orthogonalEdgeStyle;rounded=0;orthogonalLoop=1;jettySize=auto;html=1;exitX=0.5;exitY=1;exitDx=0;exitDy=0;entryX=0.5;entryY=0;entryDx=0;entryDy=0;" edge="1" parent="Pl_Ps-6tGvWlQjtr-01S-1" source="Pl_Ps-6tGvWlQjtr-01S-19" target="Pl_Ps-6tGvWlQjtr-01S-25">
          <mxGeometry relative="1" as="geometry" />
        </mxCell>
      </root>
    </mxGraphModel>
  </diagram>
  <diagram id="2RwwLd8ABHLfwwwQnvjM" name="Page-2">
    <mxGraphModel dx="872" dy="511" grid="1" gridSize="10" guides="1" tooltips="1" connect="1" arrows="1" fold="1" page="1" pageScale="1" pageWidth="850" pageHeight="1100" math="0" shadow="0">
      <root>
        <mxCell id="0" />
        <mxCell id="1" parent="0" />
      </root>
    </mxGraphModel>
  </diagram>
</mxfile>
